<svg width="75" height="75" viewBox="0 0 75 75" fill="none" xmlns="http://www.w3.org/2000/svg">
<path opacity="0.1" fill-rule="evenodd" clip-rule="evenodd" d="M0.666748 37.5C0.666748 16.7893 17.2322 0 37.6667 0C58.1013 0 74.6667 16.7893 74.6667 37.5C74.6667 58.2107 58.1013 75 37.6667 75C17.2322 75 0.666748 58.2107 0.666748 37.5Z" fill="#141414"/>
<path fill-rule="evenodd" clip-rule="evenodd" d="M36.5586 30.4805L36.6362 31.7781L35.3422 31.6192C30.6319 31.0101 26.5169 28.9446 23.023 25.4755L21.3148 23.7542L20.8749 25.0253C19.9432 27.8588 20.5384 30.8512 22.4795 32.8638C23.5147 33.976 23.2818 34.1349 21.496 33.4729C20.8749 33.261 20.3314 33.1021 20.2796 33.1816C20.0985 33.3669 20.7196 35.7767 21.2113 36.7301C21.8842 38.0541 23.2559 39.3517 24.757 40.1197L26.0251 40.7287L24.5241 40.7552C23.0747 40.7552 23.023 40.7817 23.1783 41.3378C23.6959 43.0591 25.7405 44.8863 28.018 45.6807L29.6226 46.2369L28.225 47.0843C26.1545 48.3024 23.7218 48.9909 21.289 49.0439C20.1243 49.0704 19.1667 49.1763 19.1667 49.2557C19.1667 49.5205 22.3242 51.0035 24.1617 51.5861C29.6743 53.3074 36.2222 52.5659 41.1395 49.6265C44.6334 47.5344 48.1273 43.3769 49.7578 39.3517C50.6377 37.2067 51.5177 33.2875 51.5177 31.4073C51.5177 30.1892 51.5953 30.0303 53.0446 28.5738C53.8987 27.7264 54.701 26.7996 54.8563 26.5348C55.1151 26.0316 55.0892 26.0316 53.7693 26.4818C51.5694 27.2762 51.2589 27.1703 52.3458 25.9786C53.1482 25.1312 54.1057 23.5953 54.1057 23.1451C54.1057 23.0657 53.7175 23.1981 53.2776 23.4364C52.8117 23.7013 51.7765 24.0985 51 24.3368L49.6025 24.787L48.3343 23.9131C47.6356 23.4364 46.6521 22.9068 46.1345 22.7479C44.8146 22.3772 42.7959 22.4301 41.6053 22.8539C38.3703 24.0455 36.3257 27.1173 36.5586 30.4805Z" fill="#141414"/>
</svg>
