<svg width="75" height="75" viewBox="0 0 75 75" fill="none" xmlns="http://www.w3.org/2000/svg">
<path opacity="0.1" fill-rule="evenodd" clip-rule="evenodd" d="M0 37.5C0 16.7893 16.7893 0 37.5 0C58.2107 0 75 16.7893 75 37.5C75 58.2107 58.2107 75 37.5 75C16.7893 75 0 58.2107 0 37.5Z" fill="#141414"/>
<path fill-rule="evenodd" clip-rule="evenodd" d="M53.1275 24.6083C54.8486 25.0806 56.2041 26.4722 56.6641 28.2394C57.5 31.4422 57.5 38.125 57.5 38.125C57.5 38.125 57.5 44.8075 56.6641 48.0106C56.2041 49.7778 54.8486 51.1694 53.1275 51.6419C50.0084 52.5 37.5 52.5 37.5 52.5C37.5 52.5 24.9916 52.5 21.8723 51.6419C20.1511 51.1694 18.7957 49.7778 18.3357 48.0106C17.5 44.8075 17.5 38.125 17.5 38.125C17.5 38.125 17.5 31.4422 18.3357 28.2394C18.7957 26.4722 20.1511 25.0806 21.8723 24.6083C24.9916 23.75 37.5 23.75 37.5 23.75C37.5 23.75 50.0084 23.75 53.1275 24.6083ZM33.75 32.4999V44.9999L43.75 38.7501L33.75 32.4999Z" fill="#141414"/>
</svg>
