<svg width="75" height="75" viewBox="0 0 75 75" fill="none" xmlns="http://www.w3.org/2000/svg">
<path opacity="0.1" fill-rule="evenodd" clip-rule="evenodd" d="M0.333252 37.5C0.333252 16.7893 16.8987 0 37.3333 0C57.7678 0 74.3333 16.7893 74.3333 37.5C74.3333 58.2107 57.7678 75 37.3333 75C16.8987 75 0.333252 58.2107 0.333252 37.5Z" fill="#141414"/>
<path fill-rule="evenodd" clip-rule="evenodd" d="M57.0665 37.4723C57.0665 38.8248 56.9307 40.1755 56.6638 41.4921C56.4036 42.7774 56.0182 44.0393 55.5133 45.2456C55.0199 46.4306 54.4081 47.5725 53.6931 48.6374C52.9887 49.6956 52.1773 50.6883 51.286 51.5933C50.3927 52.4943 49.4099 53.3144 48.3663 54.0313C47.3122 54.7509 46.1839 55.3702 45.014 55.8725C43.8221 56.3815 42.5742 56.7716 41.3071 57.0349C40.0063 57.306 38.6688 57.4445 37.3323 57.4445C35.9948 57.4445 34.6574 57.306 33.3585 57.0349C32.0894 56.7716 30.8416 56.3815 29.6506 55.8725C28.4808 55.3702 27.3514 54.7509 26.2973 54.0313C25.2537 53.3145 24.2708 52.4943 23.3795 51.5933C22.4873 50.6883 21.6759 49.6956 20.9705 48.6374C20.2594 47.5725 19.6465 46.4305 19.1513 45.2456C18.6463 44.0393 18.2599 42.7774 17.9988 41.4921C17.7348 40.1755 17.5999 38.8248 17.5999 37.4723C17.5999 36.1187 17.7347 34.7651 17.9989 33.4514C18.26 32.1661 18.6464 30.9022 19.1513 29.6979C19.6466 28.5121 20.2595 27.3692 20.9706 26.3042C21.6759 25.2451 22.4873 24.2543 23.3796 23.3483C24.2709 22.4472 25.2538 21.629 26.2973 20.9133C27.3515 20.1906 28.4809 19.5714 29.6506 19.0681C30.8417 18.558 32.0894 18.167 33.3585 17.9057C34.6575 17.6366 35.9949 17.5 37.3324 17.5C38.6688 17.5 40.0063 17.6366 41.3071 17.9057C42.5742 18.1671 43.8221 18.5581 45.0141 19.0681C46.1839 19.5713 47.3123 20.1906 48.3664 20.9133C49.41 21.629 50.3929 22.4472 51.2861 23.3483C52.1774 24.2543 52.9888 25.2451 53.6931 26.3042C54.4081 27.3692 55.0199 28.5121 55.5133 29.6979C56.0182 30.9022 56.4036 32.1661 56.6638 33.4514C56.9307 34.7651 57.0665 36.1187 57.0665 37.4723ZM30.1419 22.0454C25.4424 24.2914 21.9349 28.6739 20.8412 33.9557C21.2855 33.9596 28.3082 34.0493 36.3994 31.8735C33.4827 26.6289 30.3664 22.3488 30.1419 22.0454ZM37.7957 34.4999C29.1186 37.1289 20.7921 36.9398 20.4934 36.9281C20.4886 37.1114 20.4799 37.2889 20.4799 37.4723C20.4799 41.8538 22.1132 45.8482 24.7978 48.8685C24.792 48.8597 29.4038 40.5792 38.4981 37.603C38.7178 37.5288 38.9414 37.4625 39.163 37.3981C38.74 36.4289 38.2784 35.4575 37.7957 34.4999ZM48.4617 24.6717C45.4948 22.0239 41.599 20.4179 37.3322 20.4179C35.963 20.4179 34.6342 20.5856 33.3613 20.8957C33.6137 21.239 36.7791 25.4889 39.6612 30.8447C46.02 28.4321 48.4203 24.7341 48.4617 24.6717ZM40.3117 40.2243C40.2742 40.2369 40.2367 40.2477 40.2 40.2613C30.2568 43.7694 27.0098 50.8393 26.9746 50.9164C29.8356 53.1681 33.424 54.5266 37.3324 54.5266C39.6661 54.5266 41.8891 54.0457 43.9117 53.175C43.6621 51.6849 42.6831 46.4617 40.3117 40.2243ZM46.7494 51.6166C50.5334 49.0324 53.2208 44.9287 53.9705 40.1754C53.6236 40.0623 48.9088 38.5517 43.4693 39.4343C45.6798 45.5821 46.5779 50.5888 46.7494 51.6166ZM40.9583 33.3861C41.3495 34.1995 41.7283 35.0273 42.078 35.8592C42.2023 36.1577 42.3238 36.4503 42.4422 36.7428C48.2315 36.0055 53.935 37.246 54.1788 37.2966C54.1403 33.2535 52.7112 29.5428 50.3467 26.6377C50.3148 26.6834 47.612 30.636 40.9583 33.3861Z" fill="#141414"/>
</svg>
