<svg width="75" height="75" viewBox="0 0 75 75" fill="none" xmlns="http://www.w3.org/2000/svg">
<path opacity="0.1" fill-rule="evenodd" clip-rule="evenodd" d="M0 37.5C0 16.7893 16.7893 0 37.5 0C58.2107 0 75 16.7893 75 37.5C75 58.2107 58.2107 75 37.5 75C16.7893 75 0 58.2107 0 37.5Z" fill="#141414"/>
<path fill-rule="evenodd" clip-rule="evenodd" d="M37.5019 17.5C32.0702 17.5 31.3885 17.5238 29.2551 17.6208C27.1259 17.7183 25.6726 18.0554 24.4009 18.55C23.0855 19.0608 21.9696 19.7442 20.858 20.8563C19.7454 21.968 19.0621 23.0838 18.5496 24.3988C18.0538 25.6709 17.7163 27.1247 17.6204 29.253C17.525 31.3864 17.5 32.0685 17.5 37.5002C17.5 42.9319 17.5242 43.6115 17.6208 45.7449C17.7188 47.8741 18.0558 49.3274 18.55 50.5991C19.0613 51.9145 19.7446 53.0304 20.8567 54.142C21.968 55.2546 23.0838 55.9396 24.3984 56.4504C25.6709 56.945 27.1247 57.2821 29.2535 57.3796C31.3868 57.4767 32.0681 57.5004 37.4994 57.5004C42.9315 57.5004 43.6111 57.4767 45.7445 57.3796C47.8737 57.2821 49.3287 56.945 50.6012 56.4504C51.9162 55.9396 53.0304 55.2546 54.1416 54.142C55.2541 53.0304 55.9375 51.9145 56.45 50.5995C56.9417 49.3274 57.2792 47.8736 57.3792 45.7453C57.475 43.6119 57.5 42.9319 57.5 37.5002C57.5 32.0685 57.475 31.3868 57.3792 29.2535C57.2792 27.1243 56.9417 25.6709 56.45 24.3992C55.9375 23.0838 55.2541 21.968 54.1416 20.8563C53.0291 19.7438 51.9166 19.0604 50.5999 18.55C49.3249 18.0554 47.8707 17.7183 45.7415 17.6208C43.6082 17.5238 42.929 17.5 37.4956 17.5H37.5019ZM35.7076 21.1041C36.2401 21.1033 36.8343 21.1041 37.5018 21.1041C42.8418 21.1041 43.4748 21.1233 45.5835 21.2191C47.5336 21.3083 48.5919 21.6342 49.2969 21.9079C50.2303 22.2704 50.8957 22.7037 51.5953 23.4038C52.2953 24.1038 52.7286 24.7704 53.0919 25.7038C53.3657 26.408 53.692 27.4663 53.7807 29.4163C53.8765 31.5247 53.8974 32.158 53.8974 37.4956C53.8974 42.8331 53.8765 43.4665 53.7807 45.5748C53.6915 47.5248 53.3657 48.5832 53.0919 49.2874C52.7294 50.2207 52.2953 50.8853 51.5953 51.5849C50.8953 52.2849 50.2307 52.7182 49.2969 53.0807C48.5927 53.3557 47.5336 53.6807 45.5835 53.7699C43.4752 53.8657 42.8418 53.8866 37.5018 53.8866C32.1613 53.8866 31.5284 53.8657 29.42 53.7699C27.47 53.6799 26.4117 53.3541 25.7063 53.0803C24.7729 52.7178 24.1062 52.2845 23.4062 51.5845C22.7062 50.8845 22.2729 50.2195 21.9095 49.2857C21.6358 48.5815 21.3095 47.5232 21.2208 45.5732C21.125 43.4648 21.1058 42.8315 21.1058 37.4906C21.1058 32.1497 21.125 31.5197 21.2208 29.4113C21.31 27.4613 21.6358 26.403 21.9095 25.6979C22.272 24.7646 22.7062 24.0979 23.4062 23.3979C24.1062 22.6979 24.7729 22.2646 25.7063 21.9012C26.4113 21.6262 27.47 21.3012 29.42 21.2116C31.2651 21.1283 31.9801 21.1033 35.7076 21.0991V21.1041ZM48.1777 24.425C46.8527 24.425 45.7777 25.4988 45.7777 26.8242C45.7777 28.1492 46.8527 29.2242 48.1777 29.2242C49.5028 29.2242 50.5778 28.1492 50.5778 26.8242C50.5778 25.4992 49.5028 24.425 48.1777 24.425ZM37.5019 27.2292C31.8298 27.2292 27.231 31.828 27.231 37.5002C27.231 43.1723 31.8298 47.769 37.5019 47.769C43.1741 47.769 47.7712 43.1723 47.7712 37.5002C47.7712 31.828 43.1741 27.2292 37.5019 27.2292ZM37.5018 30.8334C41.1835 30.8334 44.1686 33.818 44.1686 37.5002C44.1686 41.1819 41.1835 44.1669 37.5018 44.1669C33.8197 44.1669 30.8351 41.1819 30.8351 37.5002C30.8351 33.818 33.8197 30.8334 37.5018 30.8334Z" fill="#141414"/>
</svg>
